Coordinates
version=1
nRows=36
nColumns=34
inDegrees=no

Units are S.I. units (second, meters, Newtons, ...)
If the header above contains a line with 'inDegrees', this indicates whether rotational values are in degrees (yes) or radians (no).

endheader
time	pelvis_tilt	pelvis_list	pelvis_rotation	pelvis_tx	pelvis_ty	pelvis_tz	hip_flexion_r	hip_adduction_r	hip_rotation_r	knee_angle_r	ankle_angle_r	subtalar_angle_r	mtp_angle_r	hip_flexion_l	hip_adduction_l	hip_rotation_l	knee_angle_l	ankle_angle_l	subtalar_angle_l	mtp_angle_l	lumbar_extension	lumbar_bending	lumbar_rotation	arm_flex_r	arm_add_r	arm_rot_r	elbow_flex_r	pro_sup_r	arm_flex_l	arm_add_l	arm_rot_l	elbow_flex_l	pro_sup_l
0.97	-0.167519	0.0180169	-0.000489788	1.00203	1.05125	-0.214915	0.616614	-0.0499325	-0.0866299	0.842987	0.132346	-0.232019	-9.43862e-05	0.206027	0.0418857	0.02911	0.142045	0.165633	0.0710848	-9.40464e-05	-0.0372264	-0.208085	-0.139302	-0.253401	-0.162712	-0.176817	0.898314	1.75731	-0.0623729	-0.365393	-0.238973	0.882138	1.63803
0.98	-0.169651	0.016007	0.0011608	1.01215	1.05072	-0.215441	0.617415	-0.0460341	-0.0904337	0.780839	0.124934	-0.219226	-9.44081e-05	0.192732	0.0407308	0.031716	0.134149	0.173396	0.0751998	-9.402e-05	-0.0335514	-0.200949	-0.140263	-0.25204	-0.159846	-0.179093	0.896519	1.7584	-0.0405798	-0.374447	-0.228442	0.896596	1.64951
0.99	-0.171546	0.0143436	0.00260375	1.02236	1.05004	-0.215924	0.615909	-0.0423465	-0.0951447	0.715125	0.114593	-0.206602	-9.44301e-05	0.17925	0.0397965	0.0334533	0.126669	0.181645	0.0800632	-9.39936e-05	-0.0299127	-0.194187	-0.140777	-0.250874	-0.156923	-0.181538	0.894784	1.75948	-0.0189605	-0.383136	-0.21749	0.911001	1.66044
1	-0.173095	0.0129901	0.00390108	1.03267	1.04924	-0.216366	0.612063	-0.0388644	-0.100944	0.646363	0.102314	-0.193002	-9.4452e-05	0.165495	0.0390582	0.0343169	0.119723	0.190465	0.0857539	-9.39672e-05	-0.0264417	-0.187751	-0.140931	-0.249901	-0.15396	-0.184133	0.893114	1.7606	0.00239132	-0.391431	-0.206174	0.925316	1.67073
1.01	-0.174224	0.0119142	0.00509348	1.0431	1.04832	-0.216775	0.605977	-0.0355609	-0.107812	0.57529	0.0892047	-0.177277	-9.44739e-05	0.151428	0.0384856	0.0343277	0.113451	0.199924	0.0922738	-9.39408e-05	-0.023223	-0.181588	-0.140802	-0.249113	-0.15098	-0.186859	0.891509	1.76184	0.0233564	-0.399315	-0.19457	0.939519	1.68034
1.02	-0.1749	0.0110917	0.00619364	1.05366	1.04728	-0.217155	0.597907	-0.0323883	-0.115475	0.502892	0.0763828	-0.158481	-9.44958e-05	0.13708	0.0380416	0.0335239	0.108022	0.21008	0.0995519	-9.39144e-05	-0.0202851	-0.175638	-0.140447	-0.248493	-0.148007	-0.189682	0.889958	1.76325	0.0437948	-0.40678	-0.182771	0.953611	1.68916
1.03	-0.17513	0.0105005	0.00718204	1.06434	1.04614	-0.217508	0.588271	-0.0292888	-0.123397	0.430419	0.0648665	-0.13605	-9.45178e-05	0.122556	0.0376845	0.0319556	0.103638	0.220968	0.107451	-9.38881e-05	-0.0176046	-0.169837	-0.139904	-0.248011	-0.145073	-0.192558	0.888437	1.76487	0.0635571	-0.413824	-0.170885	0.967606	1.69707
1.04	-0.174959	0.010111	0.00800748	1.07516	1.04488	-0.217832	0.577629	-0.0262115	-0.130815	0.359375	0.0554881	-0.10992	-9.45397e-05	0.108032	0.0373712	0.0296856	0.100531	0.232593	0.115775	-9.38617e-05	-0.0151216	-0.164121	-0.13919	-0.24762	-0.142211	-0.195432	0.886908	1.7667	0.0824975	-0.420451	-0.159029	0.981524	1.70389
1.05	-0.174455	0.00988146	0.00859416	1.08611	1.04353	-0.218123	0.566644	-0.0231268	-0.136853	0.291471	0.0488297	-0.080563	-9.45616e-05	0.0937303	0.0370579	0.0267948	0.0989548	0.244919	0.124274	-9.38354e-05	-0.0127648	-0.158423	-0.138304	-0.247249	-0.139457	-0.198249	0.885321	1.76868	0.100487	-0.42666	-0.147324	0.995383	1.70946
1.06	-0.173684	0.00975214	0.00885305	1.09717	1.04208	-0.218367	0.556004	-0.0200336	-0.14067	0.22853	0.0451864	-0.0489088	-9.45835e-05	0.0798827	0.0366956	0.0233866	0.0991637	0.257858	0.13266	-9.38092e-05	-0.010478	-0.152667	-0.137229	-0.246814	-0.13685	-0.200965	0.883611	1.77071	0.117423	-0.432444	-0.135889	1.00919	1.71367
1.07	-0.17269	0.00963877	0.00869587	1.10833	1.04057	-0.218555	0.546343	-0.0169512	-0.141637	0.172338	0.0445533	-0.016185	-9.46054e-05	0.0666951	0.0362216	0.0195866	0.101389	0.271269	0.14062	-9.37829e-05	-0.00823906	-0.146761	-0.135943	-0.246217	-0.134423	-0.203555	0.881701	1.77268	0.133235	-0.437782	-0.124837	1.02292	1.71646
1.08	-0.171492	0.00943125	0.00805352	1.11958	1.03902	-0.218676	0.538137	-0.0138937	-0.139495	0.124441	0.0466319	0.0162891	-9.46273e-05	0.0543138	0.0355448	0.0155319	0.105816	0.284959	0.147853	-9.37567e-05	-0.00606894	-0.140585	-0.134427	-0.245367	-0.132207	-0.206023	0.879509	1.77445	0.147875	-0.442633	-0.114271	1.03657	1.71788
1.09	-0.170069	0.0089911	0.00689632	1.13091	1.03748	-0.218725	0.53161	-0.0108347	-0.134427	0.0859129	0.0508505	0.0472959	-9.46492e-05	0.0428053	0.0345316	0.0113429	0.112563	0.298703	0.154119	-9.37305e-05	-0.00402536	-0.133988	-0.132678	-0.244194	-0.130223	-0.208405	0.876942	1.77589	0.161306	-0.44694	-0.104294	1.0501	1.71804
1.1	-0.168374	0.00814579	0.00524989	1.14234	1.03598	-0.2187	0.526665	-0.00767495	-0.127039	0.0571451	0.056397	0.0758422	-9.46711e-05	0.0321524	0.0329979	0.00707736	0.12167	0.312267	0.159314	-9.37043e-05	-0.00218497	-0.126788	-0.130722	-0.242668	-0.128478	-0.210769	0.873911	1.77695	0.173487	-0.450627	-0.0950028	1.06348	1.71713
1.11	-0.166351	0.00669777	0.0032055	1.15389	1.03456	-0.218603	0.522885	-0.00423563	-0.118225	0.0377452	0.0622701	0.10117	-9.4693e-05	0.022278	0.0307224	0.00273933	0.133095	0.325405	0.163462	-9.36781e-05	-0.00060576	-0.118795	-0.128628	-0.240808	-0.126963	-0.213203	0.87033	1.7776	0.184351	-0.453612	-0.086503	1.07671	1.71534
1.12	-0.163971	0.0044476	0.00091586	1.16559	1.03326	-0.218435	0.519634	-0.00028415	-0.108978	0.026645	0.067373	0.122696	-9.47149e-05	0.0130822	0.027476	-0.00169214	0.14672	0.337844	0.166655	-9.3652e-05	0.0007057	-0.109835	-0.126521	-0.238686	-0.125654	-0.215799	0.866123	1.77789	0.193783	-0.455817	-0.0789134	1.08982	1.71289
1.13	-0.161237	0.00122499	-0.00143415	1.17748	1.03211	-0.2182	0.516263	0.00441126	-0.100236	0.022421	0.0706717	0.139959	-9.47368e-05	0.00447416	0.0230583	-0.00624528	0.162372	0.34927	0.169016	-9.36259e-05	0.00179144	-0.0997793	-0.124569	-0.236399	-0.12452	-0.218626	0.861231	1.77788	0.20163	-0.457182	-0.0723611	1.10284	1.70996
1.14	-0.158198	-0.00307811	-0.00365967	1.18958	1.0311	-0.217902	0.512307	0.0100257	-0.0927567	0.0236295	0.0713607	0.152604	-9.47586e-05	-0.00359139	0.0173321	-0.0109451	0.179874	0.35932	0.170653	-9.35998e-05	0.00273547	-0.0885638	-0.122967	-0.234047	-0.123525	-0.221722	0.855616	1.77767	0.207706	-0.457681	-0.0669666	1.11584	1.70672
1.15	-0.154938	-0.0084936	-0.00560475	1.2019	1.03027	-0.217546	0.507595	0.0166319	-0.0870474	0.0290405	0.0689883	0.160403	-9.47805e-05	-0.0110757	0.0102495	-0.0158036	0.199077	0.367575	0.171631	-9.35737e-05	0.00366154	-0.0762126	-0.121906	-0.231716	-0.122636	-0.22508	0.849265	1.77734	0.21182	-0.457326	-0.0628228	1.12889	1.7033
1.16	-0.151595	-0.0149514	-0.00715323	1.21445	1.02962	-0.217138	0.502252	0.0241882	-0.0833304	0.0377287	0.0635122	0.163301	-9.48024e-05	-0.017834	0.00185591	-0.0208164	0.219912	0.373567	0.171965	-9.35476e-05	0.00472427	-0.0628394	-0.121548	-0.229472	-0.121822	-0.228654	0.842185	1.777	0.213803	-0.456168	-0.0599713	1.14206	1.69984
1.17	-0.148341	-0.0222933	-0.00823443	1.22719	1.02914	-0.21668	0.496602	0.0325501	-0.0815398	0.0490265	0.0552756	0.161447	-9.48243e-05	-0.0236071	-0.00772418	-0.0259672	0.242416	0.376795	0.17163	-9.35216e-05	0.00609931	-0.0486397	-0.121998	-0.227362	-0.12106	-0.23236	0.834402	1.7767	0.213537	-0.454288	-0.0583853	1.15534	1.69649
1.18	-0.145371	-0.0303043	-0.00881877	1.24011	1.02881	-0.21617	0.490984	0.0415128	-0.0813435	0.0623927	0.0449171	0.155208	-9.48461e-05	-0.0280333	-0.0183226	-0.0312389	0.266751	0.376748	0.170602	-9.34956e-05	0.0079726	-0.0338694	-0.123289	-0.225424	-0.120331	-0.236098	0.825958	1.77648	0.210982	-0.451782	-0.0579612	1.16871	1.69339
1.19	-0.142856	-0.0387571	-0.0089202	1.25317	1.02863	-0.215606	0.485643	0.0508648	-0.0822013	0.0772795	0.0332658	0.145132	-9.4868e-05	-0.0306897	-0.0297774	-0.0366334	0.293207	0.372948	0.168903	-9.34696e-05	0.0104971	-0.0188012	-0.125367	-0.22369	-0.119624	-0.239761	0.816918	1.77634	0.20619	-0.448747	-0.058523	1.1821	1.69075
1.2	-0.140905	-0.0474614	-0.00859946	1.26634	1.02859	-0.214983	0.48068	0.0604434	-0.0834555	0.0931088	0.0212379	0.131888	-9.48898e-05	-0.0311433	-0.0419841	-0.0421921	0.322202	0.364988	0.16665	-9.34437e-05	0.0137415	-0.00367401	-0.128088	-0.222177	-0.11894	-0.243247	0.807371	1.77626	0.199313	-0.445271	-0.0598385	1.19539	1.68872
1.21	-0.139555	-0.0562942	-0.00796154	1.27958	1.02869	-0.214292	0.47605	0.0701607	-0.0844413	0.109317	0.00975013	0.116222	-9.49117e-05	-0.0289889	-0.0549131	-0.0479794	0.354242	0.352559	0.164054	-9.34177e-05	0.0176675	0.0113346	-0.131237	-0.220884	-0.118297	-0.246467	0.797433	1.77618	0.190594	-0.441422	-0.0616425	1.20843	1.68743
1.22	-0.13877	-0.0651985	-0.00714241	1.29285	1.02892	-0.213522	0.471601	0.0800058	-0.0845884	0.125402	-0.000354313	0.0989109	-9.49335e-05	-0.0238728	-0.0685991	-0.0540311	0.389862	0.335452	0.161363	-9.33918e-05	0.0221375	0.0261173	-0.134549	-0.219791	-0.117725	-0.24935	0.78725	1.77606	0.180339	-0.437252	-0.0636659	1.2211	1.68695
1.23	-0.138466	-0.0741539	-0.00628089	1.3061	1.02927	-0.212667	0.467121	0.0900223	-0.0835166	0.140944	-0.00836251	0.0807573	-9.49553e-05	-0.0155068	-0.0831019	-0.0602822	0.429546	0.313554	0.158771	-9.33659e-05	0.0269486	0.0406282	-0.13776	-0.218863	-0.117265	-0.251838	0.776984	1.7759	0.168885	-0.432799	-0.0656661	1.2333	1.68723
1.24	-0.138534	-0.0831566	-0.00548928	1.31929	1.02976	-0.211726	0.462379	0.100271	-0.0810971	0.1556	-0.0137354	0.0625825	-9.49772e-05	-0.00368043	-0.0984525	-0.0665112	0.473641	0.286838	0.156325	-9.33401e-05	0.0318733	0.0548564	-0.140641	-0.218056	-0.116967	-0.253879	0.766811	1.7757	0.15656	-0.428085	-0.0674528	1.24494	1.68821
1.25	-0.138876	-0.0921994	-0.00483189	1.33238	1.03036	-0.210703	0.457158	0.110785	-0.0774716	0.16908	-0.0161337	0.0452153	-9.4999e-05	0.0117255	-0.114603	-0.0723301	0.522276	0.255383	0.153869	-9.33142e-05	0.036697	0.0687954	-0.143035	-0.217323	-0.116885	-0.25543	0.756907	1.77547	0.143657	-0.423126	-0.0689026	1.25599	1.6898
1.26	-0.139405	-0.10125	-0.00431604	1.34534	1.03107	-0.209613	0.451272	0.121545	-0.0730292	0.181126	-0.01542	0.0294743	-9.50208e-05	0.030726	-0.131398	-0.0772302	0.575312	0.219412	0.151044	-9.32884e-05	0.0412486	0.0824194	-0.144868	-0.216622	-0.11707	-0.256448	0.747444	1.77524	0.130411	-0.41793	-0.0699582	1.26642	1.69189
1.27	-0.140052	-0.110239	-0.00390218	1.35813	1.03185	-0.208476	0.444587	0.132451	-0.0683425	0.191508	-0.0116377	0.0161402	-9.50427e-05	0.0532235	-0.148566	-0.0806767	0.632317	0.179352	0.147334	-9.32626e-05	0.045419	0.0956676	-0.14614	-0.215921	-0.117568	-0.256893	0.73858	1.77507	0.116999	-0.412498	-0.0706162	1.27624	1.69439
1.28	-0.140772	-0.119065	-0.00352932	1.37075	1.0327	-0.207315	0.43703	0.143332	-0.0640728	0.200043	-0.0049744	0.00591449	-9.50645e-05	0.0789996	-0.165743	-0.0822265	0.692582	0.135915	0.142144	-9.32369e-05	0.0491567	0.108434	-0.146901	-0.215204	-0.118417	-0.256734	0.730451	1.77497	0.103539	-0.406828	-0.070905	1.28542	1.69717
1.29	-0.141561	-0.127606	-0.00313948	1.38317	1.03358	-0.206151	0.428582	0.153958	-0.0608612	0.20662	0.00428228	-0.000625107	-9.50863e-05	0.10771	-0.182507	-0.0816341	0.755172	0.0901545	0.134881	-9.32112e-05	0.0524521	0.120572	-0.147203	-0.214468	-0.119638	-0.255955	0.723168	1.77497	0.0901023	-0.400913	-0.0708636	1.29395	1.70014
1.3	-0.142436	-0.135709	-0.00270593	1.39541	1.03447	-0.205001	0.419282	0.164074	-0.0592207	0.211224	0.0157812	-0.00307996	-9.51082e-05	0.138897	-0.198425	-0.0789177	0.818986	0.0434994	0.125022	-9.31855e-05	0.055325	0.131903	-0.147069	-0.213721	-0.121238	-0.254552	0.716811	1.77508	0.0767209	-0.394748	-0.0705255	1.30176	1.70317
1.31	-0.143411	-0.143203	-0.00225522	1.40747	1.03535	-0.203877	0.409218	0.17343	-0.0594483	0.213947	0.0291323	-0.0012829	-9.513e-05	0.172013	-0.213104	-0.074369	0.882832	-0.00228099	0.112174	-9.31598e-05	0.057809	0.14224	-0.146472	-0.212976	-0.123208	-0.252538	0.711428	1.77532	0.0633931	-0.388336	-0.0699148	1.30876	1.70612
1.32	-0.144492	-0.14991	-0.0018736	1.41935	1.03622	-0.202779	0.398504	0.181813	-0.0615732	0.214984	0.04392	0.00466388	-9.51518e-05	0.206446	-0.226219	-0.068508	0.945504	-0.0451805	0.0961093	-9.31342e-05	0.0599339	0.151389	-0.145331	-0.212245	-0.125518	-0.249939	0.707028	1.7757	0.050085	-0.381687	-0.0690518	1.31487	1.70884
